<?xml version="1.0" encoding="UTF-8" standalone="no"?>
<!DOCTYPE svg PUBLIC "-//W3C//DTD SVG 1.1//EN" "http://www.w3.org/Graphics/SVG/1.1/DTD/svg11.dtd">
<svg width="100%" height="100%" viewBox="0 0 2500 2275" version="1.1" xmlns="http://www.w3.org/2000/svg" xmlns:xlink="http://www.w3.org/1999/xlink" xml:space="preserve" xmlns:serif="http://www.serif.com/" style="fill-rule:evenodd;clip-rule:evenodd;stroke-linejoin:round;stroke-miterlimit:2;">
    <g transform="matrix(0.968768,0,0,0.968768,19.008,65.5266)">
        <path d="M975.661,0L1369.32,0L1402.25,57.347L1515.09,57.347L2499.6,1762.95L2287.61,2124.42L1425.92,2124.42L1513.24,2275L1475.13,2275L1387.82,2124.42L318.208,2124.42L263.451,2028.22L195.745,2028.22L0.026,1689.32L0.396,1689.32L251.242,1254.23L483.589,1120.3L867.997,454.704L790.671,320.772L975.661,0ZM1207.64,588.636L527.616,1763.32L1178.41,1763.32L1103.3,1633.46L1812.55,1634.2L1207.64,588.636Z" style="fill:rgb(27,114,190);fill-opacity:0.38;fill-rule:nonzero;"/>
    </g>
    <g transform="matrix(0.968768,0,0,0.968768,39.008,55.5266)">
        <path d="M975.661,0L1369.32,0L1402.25,57.347L1515.09,57.347L2499.6,1762.95L2287.61,2124.42L1425.92,2124.42L1513.24,2275L1475.13,2275L1387.82,2124.42L318.208,2124.42L263.451,2028.22L195.745,2028.22L0.026,1689.32L0.396,1689.32L251.242,1254.23L483.589,1120.3L867.997,454.704L790.671,320.772L975.661,0ZM1207.64,588.636L527.616,1763.32L1178.41,1763.32L1103.3,1633.46L1812.55,1634.2L1207.64,588.636Z" style="fill:rgb(255,167,104);fill-opacity:0.38;fill-rule:nonzero;"/>
    </g>
    <g transform="matrix(0.968768,0,0,0.968768,59.008,45.5266)">
        <path d="M975.661,0L1369.32,0L1402.25,57.347L1515.09,57.347L2499.6,1762.95L2287.61,2124.42L1425.92,2124.42L1513.24,2275L1475.13,2275L1387.82,2124.42L318.208,2124.42L263.451,2028.22L195.745,2028.22L0.026,1689.32L0.396,1689.32L251.242,1254.23L483.589,1120.3L867.997,454.704L790.671,320.772L975.661,0ZM1207.64,588.636L527.616,1763.32L1178.41,1763.32L1103.3,1633.46L1812.55,1634.2L1207.64,588.636Z" style="fill:rgb(126,77,210);fill-opacity:0.38;fill-rule:nonzero;"/>
    </g>
    <g transform="matrix(0.968768,0,0,0.968768,79.008,35.5266)">
        <path d="M975.661,0L1369.32,0L1402.25,57.347L1515.09,57.347L2499.6,1762.95L2287.61,2124.42L1425.92,2124.42L1513.24,2275L1475.13,2275L1387.82,2124.42L318.208,2124.42L263.451,2028.22L195.745,2028.22L0.026,1689.32L0.396,1689.32L251.242,1254.23L483.589,1120.3L867.997,454.704L790.671,320.772L975.661,0ZM1207.64,588.636L527.616,1763.32L1178.41,1763.32L1103.3,1633.46L1812.55,1634.2L1207.64,588.636Z" style="fill-rule:nonzero;"/>
    </g>
</svg>
